<?xml version="1.0" encoding="UTF-8"?>
<!DOCTYPE svg PUBLIC "-//W3C//DTD SVG 1.1//EN" "http://www.w3.org/Graphics/SVG/1.1/DTD/svg11.dtd">
<!-- Creator: CorelDRAW 2017 -->
<svg xmlns="http://www.w3.org/2000/svg" xml:space="preserve" width="6.3498mm" height="6.3498mm" version="1.1" style="shape-rendering:geometricPrecision; text-rendering:geometricPrecision; image-rendering:optimizeQuality; fill-rule:evenodd; clip-rule:evenodd"
viewBox="0 0 635 635"
 xmlns:xlink="http://www.w3.org/1999/xlink">
 <defs>
  <style type="text/css">
   <![CDATA[
    .fil0 {fill:red}
   ]]>
  </style>
 </defs>
 <g id="Слой_x0020_1">
  <metadata id="CorelCorpID_0Corel-Layer"/>
  <path id="iconmonstr-skype-1.svg" class="fil0" d="M608 370c36,-205 -143,-381 -345,-343 -154,-94 -331,85 -236,239 -37,205 142,383 346,344 154,94 331,-86 236,-240zm-281 156c-84,0 -169,-38 -168,-104 0,-20 15,-38 35,-38 50,0 49,74 128,74 55,0 74,-30 74,-51 0,-76 -239,-30 -239,-173 0,-78 64,-131 163,-125 95,6 151,48 157,87 3,26 -14,46 -44,46 -43,0 -47,-58 -122,-58 -34,0 -62,14 -62,44 0,63 238,27 238,166 0,80 -64,133 -160,133l0 0z"/>
 </g>
</svg>
