<?xml version="1.0" encoding="UTF-8"?>
<!DOCTYPE svg PUBLIC "-//W3C//DTD SVG 1.1//EN" "http://www.w3.org/Graphics/SVG/1.1/DTD/svg11.dtd">
<!-- Creator: CorelDRAW 2017 -->
<svg xmlns="http://www.w3.org/2000/svg" xml:space="preserve" width="6.3498mm" height="6.7732mm" version="1.1" style="shape-rendering:geometricPrecision; text-rendering:geometricPrecision; image-rendering:optimizeQuality; fill-rule:evenodd; clip-rule:evenodd"
viewBox="0 0 635 677"
 xmlns:xlink="http://www.w3.org/1999/xlink">
 <defs>
  <style type="text/css">
   <![CDATA[
    .fil0 {fill:red}
   ]]>
  </style>
 </defs>
 <g id="Слой_x0020_1">
  <metadata id="CorelCorpID_0Corel-Layer"/>
  <path id="iconmonstr-mobile-phone-1.svg" class="fil0" d="M430 1l0 85 -226 0c-31,0 -56,25 -56,56l0 480c0,31 25,56 56,56l226 0c31,0 56,-25 56,-56l0 -620 -56 0 0 0zm-169 592l-56 0 0 -28 56 0 0 28zm0 -56l-56 0 0 -28 56 0 0 28zm0 -56l-56 0 0 -28 56 0 0 28zm85 113l-56 0 0 -28 56 0 0 28zm0 -56l-56 0 0 -28 56 0 0 28zm0 -56l-56 0 0 -28 56 0 0 28zm85 113l-56 0 0 -28 56 0 0 28zm0 -56l-56 0 0 -28 56 0 0 28zm0 -56l-56 0 0 -28 56 0 0 28zm0 -85l-226 0 0 -226 226 0 0 226z"/>
 </g>
</svg>
