<?xml version="1.0" encoding="UTF-8"?>
<!DOCTYPE svg PUBLIC "-//W3C//DTD SVG 1.1//EN" "http://www.w3.org/Graphics/SVG/1.1/DTD/svg11.dtd">
<!-- Creator: CorelDRAW 2017 -->
<svg xmlns="http://www.w3.org/2000/svg" xml:space="preserve" width="6.3498mm" height="6.1806mm" version="1.1" style="shape-rendering:geometricPrecision; text-rendering:geometricPrecision; image-rendering:optimizeQuality; fill-rule:evenodd; clip-rule:evenodd"
viewBox="0 0 635 618"
 xmlns:xlink="http://www.w3.org/1999/xlink">
 <defs>
  <style type="text/css">
   <![CDATA[
    .fil0 {fill:red}
   ]]>
  </style>
 </defs>
 <g id="Слой_x0020_1">
  <metadata id="CorelCorpID_0Corel-Layer"/>
  <path id="iconmonstr-email-12.svg" class="fil0" d="M335 626c-207,0 -319,-129 -319,-296 0,-178 126,-321 351,-321 164,0 284,107 284,254 0,231 -273,291 -260,160 -19,29 -49,62 -107,62 -67,0 -108,-49 -108,-127 0,-118 77,-217 169,-217 44,0 74,23 87,59l12 -43 62 0c-6,22 -61,226 -61,226 -17,71 36,72 83,34 88,-68 93,-247 -26,-321 -128,-76 -418,-29 -418,230 0,148 105,248 260,248 91,0 147,-25 193,-52l31 45c-45,26 -118,58 -232,58l0 0 -1 1zm-62 -378c-19,35 -31,81 -31,117 0,96 93,96 139,6 19,-37 31,-84 31,-120 0,-77 -92,-91 -139,-4l0 0 0 1z"/>
 </g>
</svg>
