<?xml version="1.0" encoding="UTF-8"?>
<!DOCTYPE svg PUBLIC "-//W3C//DTD SVG 1.1//EN" "http://www.w3.org/Graphics/SVG/1.1/DTD/svg11.dtd">
<!-- Creator: CorelDRAW 2017 -->
<svg xmlns="http://www.w3.org/2000/svg" xml:space="preserve" width="6.7732mm" height="6.7732mm" version="1.1" style="shape-rendering:geometricPrecision; text-rendering:geometricPrecision; image-rendering:optimizeQuality; fill-rule:evenodd; clip-rule:evenodd"
viewBox="0 0 677 677"
 xmlns:xlink="http://www.w3.org/1999/xlink">
 <defs>
  <style type="text/css">
   <![CDATA[
    .fil0 {fill:yellow}
   ]]>
  </style>
 </defs>
 <g id="Слой_x0020_1">
  <metadata id="CorelCorpID_0Corel-Layer"/>
  <path id="iconmonstr-save-3.svg" class="fil0" d="M418 101l79 0 0 132 -79 0 0 -132 0 0zm238 26l0 529 -635 0 0 -635 529 0 106 106zm-503 132l370 0 0 -185 -370 0 0 185 0 0zm423 106l-476 0 0 238 476 0 0 -238 0 0zm-53 53l-370 0 0 26 370 0 0 -26 0 0zm0 53l-370 0 0 26 370 0 0 -26zm0 53l-370 0 0 26 370 0 0 -26z"/>
 </g>
</svg>
