<?xml version="1.0" encoding="UTF-8"?>
<!DOCTYPE svg PUBLIC "-//W3C//DTD SVG 1.1//EN" "http://www.w3.org/Graphics/SVG/1.1/DTD/svg11.dtd">
<!-- Creator: CorelDRAW 2017 -->
<svg xmlns="http://www.w3.org/2000/svg" xml:space="preserve" width="6.3498mm" height="6.3498mm" version="1.1" style="shape-rendering:geometricPrecision; text-rendering:geometricPrecision; image-rendering:optimizeQuality; fill-rule:evenodd; clip-rule:evenodd"
viewBox="0 0 635 635"
 xmlns:xlink="http://www.w3.org/1999/xlink">
 <defs>
  <style type="text/css">
   <![CDATA[
    .fil0 {fill:red}
   ]]>
  </style>
 </defs>
 <g id="Слой_x0020_1">
  <metadata id="CorelCorpID_0Corel-Layer"/>
  <path id="iconmonstr-globe-3.svg" class="fil0" d="M317 0c-175,0 -318,142 -318,318 0,175 142,318 318,318 175,0 318,-142 318,-318 0,-175 -142,-318 -318,-318zm26 425l0 -81 79 0c-2,30 -6,59 -12,87 -22,-3 -44,-5 -67,-6l0 0zm52 57c-13,35 -31,66 -52,91l0 -96c18,1 35,2 52,4zm-52 -191l0 -80c23,-1 46,-3 67,-6 6,27 10,56 12,86l-79 0zm0 -133l0 -97c21,26 39,57 52,93 -17,2 -34,4 -52,4l0 0zm72 -86c33,13 62,32 87,57 -17,6 -35,12 -53,16 -9,-26 -21,-51 -34,-73zm-192 359c-6,-27 -11,-57 -12,-87l79 0 0 81c-23,1 -45,3 -67,6l0 0zm67 47l0 96c-21,-25 -39,-56 -52,-91 17,-2 34,-4 52,-4zm-79 -187c2,-30 5,-59 12,-86 22,3 44,5 67,6l0 80 -79 0zm27 -137c13,-36 31,-67 52,-93l0 97c-18,-1 -35,-2 -52,-4l0 0zm-53 -9c-19,-4 -36,-10 -53,-16 25,-24 54,-44 87,-57 -13,22 -25,47 -34,73zm-15 51c-7,30 -11,62 -13,96l-104 0c4,-44 20,-85 43,-120 23,10 48,18 74,24l0 0zm0 245c-26,6 -51,14 -74,24 -24,-35 -39,-76 -43,-120l104 0c2,33 6,66 13,97zm15 51c9,26 20,50 33,72 -32,-13 -62,-32 -86,-56 17,-6 34,-12 53,-16zm263 0c19,4 36,10 53,16 -25,24 -54,43 -86,56 13,-22 24,-46 33,-72l0 0zm15 -51c7,-31 12,-63 13,-97l104 0c-4,44 -20,85 -43,120 -23,-9 -48,-18 -74,-24zm13 -150c-2,-33 -6,-65 -13,-96 26,-6 51,-14 74,-24 23,35 38,76 43,120l-104 0z"/>
 </g>
</svg>
